<svg width="360" height="72" viewBox="0 0 360 72" fill="none" xmlns="http://www.w3.org/2000/svg">
<rect width="360" height="72" rx="36" fill="url(#paint0_linear_1_21793)"/>
<path d="M36 64C51.464 64 64 51.464 64 36C64 20.536 51.464 8 36 8C20.536 8 8 20.536 8 36C8 51.464 20.536 64 36 64Z" fill="#FF56E0"/>
<path d="M45.7371 23.2173C45.7371 23.2173 46.0451 30.7005 35.5582 36.3119C25.0713 41.9232 26.3045 48.7825 26.3045 48.7825" stroke="#E6E6E6" stroke-width="4.86956" stroke-miterlimit="10" stroke-linecap="round"/>
<path d="M26.2607 23.2173C26.2607 23.2173 25.9527 30.7005 36.4396 36.3119C46.9265 41.9233 45.6933 48.7825 45.6933 48.7825" stroke="white" stroke-width="4.86956" stroke-miterlimit="10" stroke-linecap="round"/>
<path d="M36.0002 26.2607C37.3449 26.2607 38.435 25.1706 38.435 23.8259C38.435 22.4812 37.3449 21.3911 36.0002 21.3911C34.6555 21.3911 33.5654 22.4812 33.5654 23.8259C33.5654 25.1706 34.6555 26.2607 36.0002 26.2607Z" fill="#363636"/>
<path d="M36.0002 50.6083C37.3449 50.6083 38.435 49.5182 38.435 48.1736C38.435 46.8289 37.3449 45.7388 36.0002 45.7388C34.6555 45.7388 33.5654 46.8289 33.5654 48.1736C33.5654 49.5182 34.6555 50.6083 36.0002 50.6083Z" fill="#363636"/>
<defs>
<linearGradient id="paint0_linear_1_21793" x1="2.83146" y1="36" x2="360" y2="36" gradientUnits="userSpaceOnUse">
<stop stop-color="#FFC6F4"/>
<stop offset="1" stop-color="#C4DBFF"/>
</linearGradient>
</defs>
</svg>
