<svg width="40" height="40" viewBox="0 0 40 40" fill="none" xmlns="http://www.w3.org/2000/svg">
<path d="M20.5 19.5C25.3922 19.5 29.3571 15.583 29.3571 10.75C29.3571 5.91699 25.3922 2 20.5 2C15.6078 2 11.6429 5.91699 11.6429 10.75C11.6429 15.583 15.6078 19.5 20.5 19.5ZM12.1964 30.9844C12.1964 31.8936 12.9368 32.625 13.8571 32.625C14.7775 32.625 15.5179 31.8936 15.5179 30.9844C15.5179 30.0752 14.7775 29.3438 13.8571 29.3438C12.9368 29.3438 12.1964 30.0752 12.1964 30.9844ZM27.1429 21.7285V25.0781C29.6685 25.584 31.5714 27.7988 31.5714 30.4375V33.2881C31.5714 33.8076 31.1978 34.2588 30.6788 34.3613L28.4507 34.7988C28.1531 34.8604 27.8625 34.6689 27.8002 34.3682L27.5857 33.2949C27.5234 33.001 27.7172 32.707 28.0217 32.6523L29.3571 32.3857V30.4375C29.3571 26.1445 22.7143 25.9873 22.7143 30.5674V32.3926L24.0498 32.6592C24.3473 32.7207 24.5411 33.0078 24.4857 33.3018L24.2712 34.375C24.2089 34.6689 23.9183 34.8604 23.6208 34.8057L21.4618 34.5186C20.9152 34.4434 20.5069 33.9854 20.5069 33.4316V30.4375C20.5069 27.7988 22.4098 25.5908 24.9355 25.0781V21.9883C24.7833 22.0361 24.631 22.0635 24.4788 22.1182C23.2333 22.5488 21.8978 22.7881 20.5069 22.7881C19.1161 22.7881 17.7806 22.5488 16.535 22.1182C16.023 21.9404 15.504 21.8311 14.9712 21.7627V27.3408C16.5696 27.8125 17.7391 29.2617 17.7391 30.9912C17.7391 33.1035 16.0022 34.8193 13.8641 34.8193C11.7259 34.8193 9.98906 33.1035 9.98906 30.9912C9.98906 29.2617 11.1585 27.8125 12.7569 27.3408V21.8447C8.35603 22.5762 5 26.3223 5 30.875V33.9375C5 35.626 6.39085 37 8.1 37H32.9C34.6092 37 36 35.626 36 33.9375V30.875C36 25.9531 32.0696 21.9678 27.1429 21.7285V21.7285Z" fill="#F60689"/>
</svg>
