<svg width="136" height="136" viewBox="0 0 136 136" fill="none" xmlns="http://www.w3.org/2000/svg">
<path d="M27.72 61V75H24.46L18.28 67.54V75H14.4V61H17.66L23.84 68.46V61H27.72ZM37.5733 75.28C36.0933 75.28 34.7599 74.9667 33.5733 74.34C32.3999 73.7133 31.4733 72.8467 30.7933 71.74C30.1266 70.6333 29.7933 69.3867 29.7933 68C29.7933 66.6133 30.1266 65.3667 30.7933 64.26C31.4733 63.1533 32.3999 62.2867 33.5733 61.66C34.7599 61.0333 36.0933 60.72 37.5733 60.72C39.0533 60.72 40.3799 61.0333 41.5533 61.66C42.7399 62.2867 43.6666 63.1533 44.3333 64.26C45.0133 65.3667 45.3533 66.6133 45.3533 68C45.3533 69.3867 45.0133 70.6333 44.3333 71.74C43.6666 72.8467 42.7399 73.7133 41.5533 74.34C40.3799 74.9667 39.0533 75.28 37.5733 75.28ZM37.5733 72C38.2799 72 38.9199 71.8333 39.4933 71.5C40.0666 71.1667 40.5199 70.7 40.8533 70.1C41.1866 69.4867 41.3533 68.7867 41.3533 68C41.3533 67.2133 41.1866 66.52 40.8533 65.92C40.5199 65.3067 40.0666 64.8333 39.4933 64.5C38.9199 64.1667 38.2799 64 37.5733 64C36.8666 64 36.2266 64.1667 35.6533 64.5C35.0799 64.8333 34.6266 65.3067 34.2933 65.92C33.9599 66.52 33.7933 67.2133 33.7933 68C33.7933 68.7867 33.9599 69.4867 34.2933 70.1C34.6266 70.7 35.0799 71.1667 35.6533 71.5C36.2266 71.8333 36.8666 72 37.5733 72ZM53.2477 61H57.2077V75H53.2477V61ZM72.665 75L72.625 67.58L69.025 73.62H67.265L63.685 67.78V75H60.025V61H63.285L68.205 69.08L73.005 61H76.265L76.305 75H72.665ZM88.487 72.28H82.567L81.467 75H77.427L83.607 61H87.507L93.707 75H89.587L88.487 72.28ZM87.327 69.36L85.527 64.88L83.727 69.36H87.327ZM104.014 67.7H107.514V73.5C106.714 74.0733 105.794 74.5133 104.754 74.82C103.714 75.1267 102.674 75.28 101.634 75.28C100.168 75.28 98.8477 74.9733 97.6744 74.36C96.501 73.7333 95.581 72.8667 94.9144 71.76C94.2477 70.6533 93.9144 69.4 93.9144 68C93.9144 66.6 94.2477 65.3467 94.9144 64.24C95.581 63.1333 96.5077 62.2733 97.6944 61.66C98.881 61.0333 100.221 60.72 101.714 60.72C103.021 60.72 104.194 60.94 105.234 61.38C106.274 61.82 107.141 62.4533 107.834 63.28L105.314 65.56C104.368 64.52 103.234 64 101.914 64C100.714 64 99.7477 64.3667 99.0144 65.1C98.281 65.82 97.9144 66.7867 97.9144 68C97.9144 68.7733 98.081 69.4667 98.4144 70.08C98.7477 70.68 99.2144 71.1533 99.8144 71.5C100.414 71.8333 101.101 72 101.874 72C102.634 72 103.348 71.8467 104.014 71.54V67.7ZM121.265 71.94V75H110.025V61H121.005V64.06H113.945V66.42H120.165V69.38H113.945V71.94H121.265Z" fill="#FF56E0"/>
</svg>
