<svg width="678" height="146" viewBox="0 0 678 146" fill="none" xmlns="http://www.w3.org/2000/svg">
<path d="M220.386 143.035C212.259 117.119 125.762 14.8585 0 0H53C150.503 23.4008 211.074 103.389 220.386 143.035C220.743 144.176 220.949 145.169 221 146C220.829 145.039 220.624 144.051 220.386 143.035Z" fill="url(#paint0_linear_14276_88207)"/>
<path d="M219.874 146C210.372 85.775 107.844 8.27333 48 0H673.499C674.999 0 678 1.00375 678 5.01875V142.35C678 143.567 677 146 672.999 146H219.874Z" fill="url(#paint1_linear_14276_88207)"/>
<defs>
<linearGradient id="paint0_linear_14276_88207" x1="60.136" y1="1.68584e-05" x2="225.138" y2="174.726" gradientUnits="userSpaceOnUse">
<stop stop-color="#EFE5F8"/>
<stop offset="1" stop-color="#F9E6FF"/>
</linearGradient>
<linearGradient id="paint1_linear_14276_88207" x1="237.879" y1="4.65084e-05" x2="647.928" y2="176.701" gradientUnits="userSpaceOnUse">
<stop stop-color="#E7B4FF"/>
<stop offset="1" stop-color="#FDB3FF"/>
</linearGradient>
</defs>
</svg>
